<svg width="320" height="120" viewBox="0 0 320 120" fill="none" xmlns="http://www.w3.org/2000/svg">
<g clip-path="url(#clip0_1_377)">
<path d="M304.528 30.7339C313.084 30.7339 320 23.8727 320 15.3846C320 6.89655 313.084 0 304.528 0C295.971 0 289.02 6.86119 289.02 15.3493C289.02 23.8373 295.971 30.6985 304.528 30.6985V30.7339Z" fill="#1C67D8"/>
<path d="M167.451 0C160.82 0 155.437 5.34041 155.437 11.9187V35.8267C149.163 32.5376 142.032 30.6631 134.439 30.6631C109.626 30.6631 89.4121 50.6808 89.4121 75.3316C89.4121 99.9823 109.59 120 134.439 120C159.287 120 179.466 99.9823 179.466 75.3316V75.2608V11.9187C179.466 5.34041 174.082 0 167.451 0ZM134.474 96.1627C122.924 96.1627 113.476 86.8258 113.476 75.3316C113.476 63.8373 122.888 54.5004 134.474 54.5004C146.061 54.5004 155.473 63.8373 155.473 75.3316C155.473 86.8258 146.061 96.1627 134.474 96.1627Z" fill="#1C67D8"/>
<path d="M265.669 0C259.038 0 253.654 5.34041 253.654 11.9187V35.8267C247.38 32.5376 240.25 30.6631 232.656 30.6631C207.843 30.6631 187.629 50.6808 187.629 75.3316C187.629 99.9823 207.808 120 232.656 120C257.505 120 277.683 99.9823 277.683 75.3316C277.683 75.3316 277.683 75.2962 277.683 75.2608C277.683 75.2608 277.683 75.2608 277.683 75.2255V11.9187C277.683 5.34041 272.3 0 265.669 0ZM232.656 96.1627C221.105 96.1627 211.658 86.8258 211.658 75.3316C211.658 63.8373 221.07 54.5004 232.656 54.5004C244.243 54.5004 253.654 63.8373 253.654 75.3316C253.654 86.8258 244.243 96.1627 232.656 96.1627Z" fill="#1C67D8"/>
<path d="M304.492 38.9397C297.861 38.9397 292.478 44.2801 292.478 50.8583V108.047C292.478 114.625 297.861 119.965 304.492 119.965C311.123 119.965 316.506 114.625 316.506 108.047V50.8583C316.506 44.2801 311.123 38.9397 304.492 38.9397Z" fill="#1C67D8"/>
<path d="M40.6061 10.2923C18.2175 10.2923 0 28.3648 0 50.5753V108.047C0 114.625 5.38324 119.965 12.0143 119.965C18.6453 119.965 24.0285 114.625 24.0285 108.047V87.1801H57.1479V108.047C57.1479 114.625 62.5312 119.965 69.1622 119.965C75.7932 119.965 81.1765 114.625 81.1765 108.047V50.5753C81.1765 28.3648 62.959 10.2923 40.5704 10.2923H40.6061ZM57.1836 63.3427H24.0285V50.5753C24.0285 41.5213 31.4795 34.1297 40.6061 34.1297C49.7326 34.1297 57.1836 41.5213 57.1836 50.5753V63.3427Z" fill="#1C67D8"/>
</g>
<defs>
<clipPath id="clip0_1_377">
<rect width="320" height="120" fill="white"/>
</clipPath>
</defs>
</svg>
